<?xml version="1.0" encoding="UTF-8" standalone="no"?>
<!-- Created with Inkscape (http://www.inkscape.org/) -->

<svg
   width="113.71839mm"
   height="109.20229mm"
   viewBox="0 0 113.71839 109.20229"
   version="1.1"
   id="svg4867"
   xml:space="preserve"
   inkscape:version="1.2.1 (9c6d41e410, 2022-07-14)"
   sodipodi:docname="logo.svg"
   xmlns:inkscape="http://www.inkscape.org/namespaces/inkscape"
   xmlns:sodipodi="http://sodipodi.sourceforge.net/DTD/sodipodi-0.dtd"
   xmlns="http://www.w3.org/2000/svg"
   xmlns:svg="http://www.w3.org/2000/svg"><sodipodi:namedview
     id="namedview4869"
     pagecolor="#ffffff"
     bordercolor="#000000"
     borderopacity="0.25"
     inkscape:showpageshadow="2"
     inkscape:pageopacity="0.0"
     inkscape:pagecheckerboard="0"
     inkscape:deskcolor="#d1d1d1"
     inkscape:document-units="mm"
     showgrid="false"
     inkscape:zoom="0.73940797"
     inkscape:cx="180.54985"
     inkscape:cy="158.91092"
     inkscape:window-width="1920"
     inkscape:window-height="991"
     inkscape:window-x="-9"
     inkscape:window-y="-9"
     inkscape:window-maximized="1"
     inkscape:current-layer="layer1" /><defs
     id="defs4864" /><g
     inkscape:label="Layer 1"
     inkscape:groupmode="layer"
     id="layer1"
     transform="translate(-34.839768,-66.43515)"><path
       id="path5066"
       style="fill:#000000;stroke-width:0.264583"
       d="m 94.570455,66.435221 c -5.446762,-0.0029 -10.903157,0.0863 -16.343189,0.02894 -7.663618,0.43459 -15.617403,-0.937679 -23.043037,1.438672 -6.572218,2.344449 -11.128894,8.146365 -13.089124,14.69471 -0.08819,27.631637 -0.176393,55.263567 -0.264583,82.895197 -1.357655,4.06467 -10.128231,4.12547 -5.801713,9.24543 l 0.565857,0.44597 c 5.235356,1.68689 10.336422,-2.80383 11.818916,-7.65535 0.641983,-23.70884 0.393949,-47.44358 0.582394,-71.164128 0.173519,-4.0915 -0.280021,-8.292688 0.283703,-12.316044 1.443048,-6.022106 6.990924,-9.867767 12.871049,-10.766268 10.032411,-0.187704 20.111798,-0.01853 30.1594,-0.0646 8.442342,-0.357965 17.239102,0.695773 24.529772,5.272546 9.38786,5.371347 15.78915,15.559627 16.07292,26.438184 0.80206,9.66334 -3.47707,20.02549 -12.21993,24.7773 -5.73472,2.25248 -12.24239,0.29446 -18.14049,1.80609 -4.107624,1.96333 -0.8316,7.55097 2.91248,6.65127 6.96772,0.30831 14.23841,-0.97008 20.86798,1.66605 9.73477,3.31129 16.26627,13.65943 15.12672,23.8771 0.64971,4.03304 -2.27511,12.9753 4.57388,11.70729 4.6175,-3.10943 1.29155,-10.63534 2.26808,-15.61196 0.53964,-12.03816 -8.45579,-22.84057 -19.55539,-26.55911 3.70737,-3.9681 7.51328,-8.05588 9.24336,-13.34492 4.46585,-12.86209 2.13906,-28.096053 -6.86315,-38.508246 -6.56254,-8.264422 -16.50232,-13.061838 -26.76787,-14.797546 -3.25526,-0.119634 -6.519978,-0.154819 -9.788035,-0.15658 z M 89.698401,80.37959 c -5.289494,-0.01945 -10.582163,0.06403 -15.864148,0.08527 -7.23981,-0.479088 -14.553173,4.521885 -15.996956,11.760006 -0.452356,22.595794 -0.248659,45.203264 -0.206189,67.803604 0.633445,4.94174 -1.300997,11.18194 1.351855,15.18461 1.810341,0.68184 4.725153,0.59752 5.4684,-1.59629 0.54416,-25.2265 0.06162,-50.46936 0.397909,-75.701316 -0.695999,-4.275378 1.426033,-8.718512 5.55625,-10.290844 10.095033,0.02456 20.191191,-0.05961 30.285488,0.06098 6.35699,-0.674069 12.92779,4.835015 12.83539,11.310421 1.10736,6.363399 -3.97091,12.122949 -9.92911,13.533549 -8.603601,0.70238 -17.279482,0.23004 -25.915727,0.36276 V 96.616325 c 1.247785,-4.121079 -5.438724,-5.945628 -6.654374,-1.628841 -0.299928,5.862936 -0.168162,11.739026 -0.224792,17.608226 -2.580695,-0.56572 -1.977175,1.80035 -1.984375,3.60392 0.03417,1.76963 -0.667289,4.21654 1.956986,3.60236 0.295054,17.08921 0.147167,34.18244 0.359668,51.27232 -2.278019,6.27989 8.906632,5.88383 6.572726,-0.32659 -0.514939,-4.45732 2.293574,-8.62556 6.456453,-10.09809 9.545465,0.008 19.091115,-0.0179 28.636495,0.0155 5.39579,-0.75577 11.75175,1.37094 12.70982,7.44244 -1.53827,4.63077 3.58083,10.57407 7.34322,5.72058 1.79977,-8.49994 -4.04427,-17.71143 -12.48038,-19.8267 -6.81008,-0.86084 -13.73632,-0.37351 -20.595121,-0.57154 -7.258143,0.44248 -15.331989,-1.56579 -21.831742,2.62826 v -36.25928 c 5.731572,-0.0378 11.463243,-0.0759 17.194816,-0.11369 3.467324,-0.26017 7.095317,0.45738 10.448977,-0.49506 7.89124,-1.99593 14.80089,-8.6216 15.29364,-17.0279 1.15343,-9.659732 -5.84586,-19.302389 -15.34067,-21.2509 -5.26864,-0.389999 -10.555015,-0.512302 -15.844509,-0.53175 z M 50.8,110 v 11.13421 c 0.954215,-1.07349 1.635291,-2.06069 2.589506,-3.13418 0.656024,0.98404 1.754681,2.41576 2.410706,3.3998 V 110 l -2.589506,3.59978 z" /></g></svg>
